<svg data-v-423bf9ae="" xmlns="http://www.w3.org/2000/svg" viewBox="0 0 208.27996071117542 60" class="font"><!----><!----><!----><g data-v-423bf9ae="" id="22da576d-fd5e-47d0-a1b8-bf28728930ea" fill="black" transform="matrix(4.467609727222167,0,0,4.467609727222167,0.3127304558246635,-10.99032105306663)"><path d="M-0.07 14.81L-0.07 14.81L-0.07 14.81Q-0.07 14.55 0.70 12.83L0.70 12.83L0.70 12.83Q1.47 11.12 2.48 8.90L2.48 8.90L2.48 8.90Q3.50 6.68 3.86 5.73L3.86 5.73L4.17 4.93L4.17 4.93Q3.95 4.59 3.68 4.33L3.68 4.33L3.68 4.33Q4.12 4.16 4.51 4.16L4.51 4.16L4.51 4.16Q5.39 4.16 5.88 5.28L5.88 5.28L5.88 5.28Q6.19 5.99 6.71 8.47L6.71 8.47L6.71 8.47Q6.72 8.50 6.75 8.65L6.75 8.65L6.75 8.65Q6.78 8.81 7.04 10.07L7.04 10.07L7.04 10.07Q7.29 11.34 7.39 11.75L7.39 11.75L7.39 11.75Q7.49 12.17 7.73 13.02L7.73 13.02L7.73 13.02Q8.11 14.46 8.68 15.26L8.68 15.26L8.68 15.26Q8.02 15.65 7.59 15.65L7.59 15.65L7.59 15.65Q7.17 15.65 6.98 15.39L6.98 15.39L6.98 15.39Q6.79 15.13 6.63 14.60L6.63 14.60L6.63 14.60Q6.47 14.06 5.95 11.59L5.95 11.59L5.95 11.59Q5.64 12.07 4.72 12.10L4.72 12.10L2.23 12.19L2.23 12.19Q1.43 14.35 1.06 15.89L1.06 15.89L1.06 15.89Q-0.07 15.41-0.07 14.81ZM4.66 6.17L4.66 6.17L4.66 6.17Q3.05 10.00 2.60 11.14L2.60 11.14L5.85 11.14L5.85 11.14Q5.19 7.94 4.66 6.17ZM10.18 14.41L10.18 14.41L10.18 14.41Q10.16 14.18 10.16 13.69L10.16 13.69L10.16 13.69Q10.16 13.19 10.63 9.44L10.63 9.44L10.63 9.44Q11.10 5.68 11.10 4.28L11.10 4.28L11.10 4.28Q11.10 2.88 10.93 2.46L10.93 2.46L10.93 2.46Q11.72 2.76 12.04 3.33L12.04 3.33L12.04 3.33Q12.36 3.91 12.36 4.72L12.36 4.72L12.36 4.72Q12.36 5.53 11.96 8.92L11.96 8.92L11.96 8.92Q11.55 12.31 11.55 14.38L11.55 14.38L11.55 14.38Q11.55 14.83 11.61 15.64L11.61 15.64L11.61 15.64Q10.84 15.58 10.51 15.27L10.51 15.27L10.51 15.27Q10.25 15.02 10.18 14.41ZM16.07 15.64L16.07 15.64Q15.27 15.36 14.96 14.78L14.96 14.78L14.96 14.78Q14.64 14.20 14.64 13.37L14.64 13.37L14.64 13.37Q14.64 12.54 14.87 11.00L14.87 11.00L14.87 11.00Q15.09 9.46 15.09 8.61L15.09 8.61L15.09 8.61Q15.09 7.76 15.01 7.29L15.01 7.29L15.01 7.29Q15.26 7.27 15.41 7.27L15.41 7.27L15.41 7.27Q16.04 7.27 16.32 7.55L16.32 7.55L16.32 7.55Q16.60 7.83 16.60 8.47L16.60 8.47L16.60 8.47Q16.60 8.68 16.26 10.68L16.26 10.68L16.26 10.68Q15.92 12.67 15.91 13.96L15.91 13.96L15.91 13.96Q15.90 15.26 16.07 15.64L16.07 15.64ZM16.28 5.88L16.28 5.88L16.28 5.88Q15.11 5.88 15.11 5.08L15.11 5.08L15.11 5.08Q15.11 4.80 15.32 4.30L15.32 4.30L15.32 4.30Q15.62 4.24 15.85 4.24L15.85 4.24L15.85 4.24Q17.02 4.24 17.02 5.04L17.02 5.04L17.02 5.04Q17.02 5.32 16.81 5.82L16.81 5.82L16.81 5.82Q16.51 5.88 16.28 5.88ZM20.61 10.88L20.61 10.88Q21.11 9.06 21.82 8.20L21.82 8.20L21.82 8.20Q22.53 7.34 23.14 7.34L23.14 7.34L23.14 7.34Q23.74 7.34 24.05 7.79L24.05 7.79L24.05 7.79Q24.36 8.25 24.36 8.95L24.36 8.95L24.36 8.95Q24.36 9.65 24.00 10.16L24.00 10.16L24.00 10.16Q23.63 10.67 22.93 10.67L22.93 10.67L22.93 10.67Q22.71 10.67 22.58 10.64L22.58 10.64L22.58 10.64Q23.06 9.95 23.06 9.24L23.06 9.24L23.06 9.24Q23.06 8.74 22.65 8.74L22.65 8.74L22.65 8.74Q22.33 8.74 21.97 9.11L21.97 9.11L21.97 9.11Q21.60 9.49 21.27 10.16L21.27 10.16L21.27 10.16Q20.93 10.84 20.71 11.91L20.71 11.91L20.71 11.91Q20.48 12.99 20.48 14.24L20.48 14.24L20.48 14.24Q20.48 14.38 20.55 15.43L20.55 15.43L20.55 15.43Q20.19 15.46 20.13 15.46L20.13 15.46L20.13 15.46Q18.90 15.46 18.90 14.25L18.90 14.25L18.90 14.25Q18.90 13.97 19.19 12.10L19.19 12.10L19.19 12.10Q19.49 10.22 19.49 9.11L19.49 9.11L19.49 9.11Q19.49 7.99 19.25 7.06L19.25 7.06L19.25 7.06Q20.08 7.38 20.41 7.97L20.41 7.97L20.41 7.97Q20.73 8.57 20.73 9.36L20.73 9.36L20.73 9.36Q20.73 10.15 20.61 10.88L20.61 10.88ZM28.85 8.08L28.85 8.08L28.85 8.08Q28.01 8.08 27.43 9.04L27.43 9.04L27.43 9.04Q26.85 10.01 26.66 11.31L26.66 11.31L27.05 11.31L27.05 11.31Q27.79 11.31 28.34 11.10L28.34 11.10L28.34 11.10Q28.88 10.89 29.18 10.56L29.18 10.56L29.18 10.56Q29.74 9.91 29.74 9.10L29.74 9.10L29.74 9.10Q29.74 8.64 29.52 8.36L29.52 8.36L29.52 8.36Q29.30 8.08 28.85 8.08ZM30.83 13.75L30.83 13.75Q30.18 14.80 29.41 15.22L29.41 15.22L29.41 15.22Q28.64 15.64 27.63 15.64L27.63 15.64L27.63 15.64Q26.61 15.64 25.86 14.74L25.86 14.74L25.86 14.74Q25.10 13.85 25.10 12.22L25.10 12.22L25.10 12.22Q25.10 10.37 26.10 8.92L26.10 8.92L26.10 8.92Q26.59 8.22 27.38 7.78L27.38 7.78L27.38 7.78Q28.17 7.35 29.12 7.35L29.12 7.35L29.12 7.35Q31.22 7.35 31.22 9.38L31.22 9.38L31.22 9.38Q31.22 10.60 30.27 11.29L30.27 11.29L30.27 11.29Q29.33 11.98 28.08 11.98L28.08 11.98L28.08 11.98Q27.26 11.98 26.60 11.83L26.60 11.83L26.60 11.83Q26.59 11.97 26.59 12.26L26.59 12.26L26.59 12.26Q26.59 14.74 28.06 14.74L28.06 14.74L28.06 14.74Q29.44 14.74 30.31 13.37L30.31 13.37L30.31 13.37Q30.83 13.44 30.83 13.75L30.83 13.75ZM33.15 7.50L33.15 7.50L33.15 7.50Q34.50 7.70 35.65 7.70L35.65 7.70L35.65 7.70Q36.81 7.70 37.56 7.63L37.56 7.63L37.56 7.63Q37.77 7.20 37.87 6.83L37.87 6.83L37.87 6.83Q38.50 7.36 38.50 7.99L38.50 7.99L38.50 7.99Q38.50 8.62 37.93 9.48L37.93 9.48L37.93 9.48Q37.37 10.33 36.12 11.80L36.12 11.80L36.12 11.80Q34.87 13.26 34.24 14.11L34.24 14.11L34.24 14.11Q35.92 14.15 36.53 14.15L36.53 14.15L36.53 14.15Q37.14 14.15 38.01 14.03L38.01 14.03L38.01 14.03Q38.08 14.38 38.08 14.76L38.08 14.76L38.08 14.76Q38.08 15.53 37.02 15.53L37.02 15.53L37.02 15.53Q36.76 15.53 35.55 15.41L35.55 15.41L35.55 15.41Q34.34 15.30 33.46 15.30L33.46 15.30L33.46 15.30Q32.58 15.30 31.71 15.54L31.71 15.54L31.71 15.54Q31.91 14.49 32.65 14.22L32.65 14.22L32.65 14.22Q35.42 11.35 37.00 8.69L37.00 8.69L37.00 8.69Q36.27 8.72 35.22 8.86L35.22 8.86L35.22 8.86Q34.16 8.99 33.95 8.99L33.95 8.99L33.95 8.99Q33.04 8.99 33.04 8.08L33.04 8.08L33.04 8.08Q33.04 7.81 33.15 7.50ZM41.80 9.95L41.80 9.95L41.80 9.95Q41.40 10.65 41.18 11.39L41.18 11.39L41.18 11.39Q40.96 12.12 40.96 12.80L40.96 12.80L40.96 12.80Q40.96 13.47 41.27 13.94L41.27 13.94L41.27 13.94Q41.57 14.41 42.13 14.41L42.13 14.41L42.13 14.41Q42.91 14.41 43.60 13.55L43.60 13.55L43.60 13.55Q44.28 12.68 44.65 11.46L44.65 11.46L44.65 11.46Q45.02 10.23 45.02 9.19L45.02 9.19L45.02 9.19Q45.02 8.15 44.94 7.48L44.94 7.48L44.94 7.48Q45.28 7.45 45.36 7.45L45.36 7.45L45.36 7.45Q46.55 7.45 46.55 8.67L46.55 8.67L46.55 8.67Q46.55 8.93 46.21 10.83L46.21 10.83L46.21 10.83Q45.88 12.73 45.88 13.87L45.88 13.87L45.88 13.87Q45.88 15.01 46.31 15.89L46.31 15.89L46.31 15.89Q45.43 15.71 45.03 15.11L45.03 15.11L45.03 15.11Q44.63 14.52 44.63 13.40L44.63 13.40L44.63 13.40Q44.63 13.20 44.69 12.64L44.69 12.64L44.69 12.64Q44.31 13.97 43.36 14.78L43.36 14.78L43.36 14.78Q42.41 15.60 41.49 15.60L41.49 15.60L41.49 15.60Q40.57 15.60 40.01 14.90L40.01 14.90L40.01 14.90Q39.45 14.21 39.45 12.99L39.45 12.99L39.45 12.99Q39.45 11.76 39.91 10.59L39.91 10.59L39.91 10.59Q40.36 9.42 41.28 8.57L41.28 8.57L41.28 8.57Q42.20 7.71 43.33 7.71L43.33 7.71L43.33 7.71Q43.82 7.71 44.41 7.91L44.41 7.91L44.41 7.91Q43.58 8.12 42.90 8.68L42.90 8.68L42.90 8.68Q42.21 9.24 41.80 9.95Z"></path></g><!----><!----></svg>